<mxfile host="app.diagrams.net" agent="Mozilla/5.0 (Windows NT 10.0; Win64; x64) AppleWebKit/537.36 (KHTML, like Gecko) Chrome/126.0.0.0 Safari/537.36" version="24.7.4">
  <diagram name="Page-1" id="yDXlQBshYLE9_qmjjzhe">
    <mxGraphModel dx="1723" dy="743" grid="0" gridSize="10" guides="1" tooltips="1" connect="1" arrows="1" fold="1" page="1" pageScale="1" pageWidth="850" pageHeight="1100" math="0" shadow="0">
      <root>
        <mxCell id="0" />
        <mxCell id="1" parent="0" />
        <mxCell id="ez5KbiafPJX029IDMAS3-1" value="" style="group" vertex="1" connectable="0" parent="1">
          <mxGeometry x="40" y="117" width="771" height="814" as="geometry" />
        </mxCell>
        <mxCell id="ez5KbiafPJX029IDMAS3-2" value="" style="rounded=1;whiteSpace=wrap;html=1;fillColor=#f8cecc;strokeColor=#b85450;" vertex="1" parent="ez5KbiafPJX029IDMAS3-1">
          <mxGeometry x="222" y="137" width="225" height="156" as="geometry" />
        </mxCell>
        <mxCell id="ez5KbiafPJX029IDMAS3-3" value="&lt;b&gt;Docker CE&lt;/b&gt;" style="text;html=1;align=center;verticalAlign=middle;resizable=0;points=[];autosize=1;strokeColor=none;fillColor=none;fontSize=16;" vertex="1" parent="ez5KbiafPJX029IDMAS3-1">
          <mxGeometry x="339" y="141" width="99" height="31" as="geometry" />
        </mxCell>
        <mxCell id="ez5KbiafPJX029IDMAS3-4" value="&lt;b&gt;local repo&lt;/b&gt;" style="ellipse;whiteSpace=wrap;html=1;aspect=fixed;" vertex="1" parent="ez5KbiafPJX029IDMAS3-1">
          <mxGeometry x="348.5" y="189" width="80" height="80" as="geometry" />
        </mxCell>
        <mxCell id="ez5KbiafPJX029IDMAS3-5" style="edgeStyle=none;curved=1;rounded=0;orthogonalLoop=1;jettySize=auto;html=1;entryX=1;entryY=0.5;entryDx=0;entryDy=0;fontSize=12;startSize=8;endSize=8;" edge="1" parent="ez5KbiafPJX029IDMAS3-1" source="ez5KbiafPJX029IDMAS3-6" target="ez5KbiafPJX029IDMAS3-4">
          <mxGeometry relative="1" as="geometry">
            <Array as="points">
              <mxPoint x="559" y="232" />
            </Array>
          </mxGeometry>
        </mxCell>
        <mxCell id="ez5KbiafPJX029IDMAS3-6" value="" style="image;sketch=0;aspect=fixed;html=1;points=[];align=center;fontSize=12;image=img/lib/mscae/Docker.svg;" vertex="1" parent="ez5KbiafPJX029IDMAS3-1">
          <mxGeometry x="467" width="126.83" height="104" as="geometry" />
        </mxCell>
        <mxCell id="ez5KbiafPJX029IDMAS3-7" value="" style="shape=image;html=1;verticalAlign=top;verticalLabelPosition=bottom;labelBackgroundColor=#ffffff;imageAspect=0;aspect=fixed;image=https://cdn1.iconfinder.com/data/icons/unicons-line-vol-3/24/docker-128.png" vertex="1" parent="ez5KbiafPJX029IDMAS3-1">
          <mxGeometry x="287" y="205" width="48" height="48" as="geometry" />
        </mxCell>
        <mxCell id="ez5KbiafPJX029IDMAS3-8" style="edgeStyle=none;curved=1;rounded=0;orthogonalLoop=1;jettySize=auto;html=1;entryX=0;entryY=0.5;entryDx=0;entryDy=0;fontSize=12;startSize=8;endSize=8;" edge="1" parent="ez5KbiafPJX029IDMAS3-1" source="ez5KbiafPJX029IDMAS3-9" target="ez5KbiafPJX029IDMAS3-11">
          <mxGeometry relative="1" as="geometry" />
        </mxCell>
        <mxCell id="ez5KbiafPJX029IDMAS3-9" value="" style="html=1;verticalLabelPosition=bottom;align=center;labelBackgroundColor=#ffffff;verticalAlign=top;strokeWidth=2;strokeColor=#0080F0;shadow=0;dashed=0;shape=mxgraph.ios7.icons.user;" vertex="1" parent="ez5KbiafPJX029IDMAS3-1">
          <mxGeometry y="177.5" width="86" height="75" as="geometry" />
        </mxCell>
        <mxCell id="ez5KbiafPJX029IDMAS3-10" style="edgeStyle=none;curved=1;rounded=0;orthogonalLoop=1;jettySize=auto;html=1;entryX=0;entryY=0.5;entryDx=0;entryDy=0;fontSize=12;startSize=8;endSize=8;" edge="1" parent="ez5KbiafPJX029IDMAS3-1" source="ez5KbiafPJX029IDMAS3-11" target="ez5KbiafPJX029IDMAS3-7">
          <mxGeometry relative="1" as="geometry" />
        </mxCell>
        <mxCell id="ez5KbiafPJX029IDMAS3-11" value="" style="rounded=1;whiteSpace=wrap;html=1;" vertex="1" parent="ez5KbiafPJX029IDMAS3-1">
          <mxGeometry x="210" y="185" width="26" height="60" as="geometry" />
        </mxCell>
        <mxCell id="ez5KbiafPJX029IDMAS3-12" value="" style="rounded=1;whiteSpace=wrap;html=1;fillColor=#f8cecc;strokeColor=#b85450;" vertex="1" parent="ez5KbiafPJX029IDMAS3-1">
          <mxGeometry x="110" y="401" width="225" height="156" as="geometry" />
        </mxCell>
        <mxCell id="ez5KbiafPJX029IDMAS3-13" value="" style="ellipse;whiteSpace=wrap;html=1;" vertex="1" parent="ez5KbiafPJX029IDMAS3-1">
          <mxGeometry x="205" y="423" width="86" height="54" as="geometry" />
        </mxCell>
        <mxCell id="ez5KbiafPJX029IDMAS3-14" style="edgeStyle=orthogonalEdgeStyle;rounded=0;orthogonalLoop=1;jettySize=auto;html=1;" edge="1" parent="ez5KbiafPJX029IDMAS3-1" source="ez5KbiafPJX029IDMAS3-15">
          <mxGeometry relative="1" as="geometry">
            <mxPoint x="246" y="517.9028625488281" as="targetPoint" />
          </mxGeometry>
        </mxCell>
        <mxCell id="ez5KbiafPJX029IDMAS3-15" value="" style="shape=image;html=1;verticalAlign=top;verticalLabelPosition=bottom;labelBackgroundColor=#ffffff;imageAspect=0;aspect=fixed;image=https://cdn1.iconfinder.com/data/icons/unicons-line-vol-3/24/docker-128.png" vertex="1" parent="ez5KbiafPJX029IDMAS3-1">
          <mxGeometry x="222" y="426" width="48" height="48" as="geometry" />
        </mxCell>
        <mxCell id="ez5KbiafPJX029IDMAS3-16" value="" style="endArrow=none;html=1;rounded=0;exitX=0;exitY=0.75;exitDx=0;exitDy=0;entryX=1;entryY=0.75;entryDx=0;entryDy=0;" edge="1" parent="ez5KbiafPJX029IDMAS3-1" source="ez5KbiafPJX029IDMAS3-12" target="ez5KbiafPJX029IDMAS3-12">
          <mxGeometry width="50" height="50" relative="1" as="geometry">
            <mxPoint x="270" y="349" as="sourcePoint" />
            <mxPoint x="320" y="299" as="targetPoint" />
          </mxGeometry>
        </mxCell>
        <mxCell id="ez5KbiafPJX029IDMAS3-17" value="" style="shape=image;html=1;verticalAlign=top;verticalLabelPosition=bottom;labelBackgroundColor=#ffffff;imageAspect=0;aspect=fixed;image=https://cdn1.iconfinder.com/data/icons/unicons-line-vol-3/24/docker-128.png" vertex="1" parent="ez5KbiafPJX029IDMAS3-1">
          <mxGeometry x="131" y="429" width="48" height="48" as="geometry" />
        </mxCell>
        <mxCell id="ez5KbiafPJX029IDMAS3-18" value="" style="ellipse;whiteSpace=wrap;html=1;" vertex="1" parent="ez5KbiafPJX029IDMAS3-1">
          <mxGeometry x="116" y="423" width="86" height="54" as="geometry" />
        </mxCell>
        <mxCell id="ez5KbiafPJX029IDMAS3-19" style="edgeStyle=orthogonalEdgeStyle;rounded=0;orthogonalLoop=1;jettySize=auto;html=1;" edge="1" parent="ez5KbiafPJX029IDMAS3-1" source="ez5KbiafPJX029IDMAS3-20">
          <mxGeometry relative="1" as="geometry">
            <mxPoint x="163" y="522.3472595214844" as="targetPoint" />
          </mxGeometry>
        </mxCell>
        <mxCell id="ez5KbiafPJX029IDMAS3-20" value="" style="shape=image;html=1;verticalAlign=top;verticalLabelPosition=bottom;labelBackgroundColor=#ffffff;imageAspect=0;aspect=fixed;image=https://cdn1.iconfinder.com/data/icons/unicons-line-vol-3/24/docker-128.png" vertex="1" parent="ez5KbiafPJX029IDMAS3-1">
          <mxGeometry x="139" y="429" width="48" height="48" as="geometry" />
        </mxCell>
        <mxCell id="ez5KbiafPJX029IDMAS3-21" style="edgeStyle=orthogonalEdgeStyle;rounded=0;orthogonalLoop=1;jettySize=auto;html=1;" edge="1" parent="ez5KbiafPJX029IDMAS3-1" source="ez5KbiafPJX029IDMAS3-22" target="ez5KbiafPJX029IDMAS3-23">
          <mxGeometry relative="1" as="geometry" />
        </mxCell>
        <mxCell id="ez5KbiafPJX029IDMAS3-22" value="&lt;b&gt;&lt;font style=&quot;font-size: 14px;&quot;&gt;Backend&lt;/font&gt;&lt;/b&gt;" style="rounded=1;whiteSpace=wrap;html=1;fillColor=#f8cecc;strokeColor=#b85450;" vertex="1" parent="ez5KbiafPJX029IDMAS3-1">
          <mxGeometry x="144" y="653" width="225" height="156" as="geometry" />
        </mxCell>
        <mxCell id="ez5KbiafPJX029IDMAS3-23" value="&lt;b&gt;DB&lt;/b&gt;" style="shape=cylinder3;whiteSpace=wrap;html=1;boundedLbl=1;backgroundOutline=1;size=15;fillColor=#d5e8d4;strokeColor=#82b366;" vertex="1" parent="ez5KbiafPJX029IDMAS3-1">
          <mxGeometry x="612" y="648" width="159" height="166" as="geometry" />
        </mxCell>
        <mxCell id="ez5KbiafPJX029IDMAS3-24" style="edgeStyle=orthogonalEdgeStyle;rounded=0;orthogonalLoop=1;jettySize=auto;html=1;" edge="1" parent="ez5KbiafPJX029IDMAS3-1" source="ez5KbiafPJX029IDMAS3-25">
          <mxGeometry relative="1" as="geometry">
            <mxPoint x="691.5" y="647.9028015136719" as="targetPoint" />
          </mxGeometry>
        </mxCell>
        <mxCell id="ez5KbiafPJX029IDMAS3-25" value="&lt;b&gt;Jump Host&lt;/b&gt;" style="ellipse;whiteSpace=wrap;html=1;aspect=fixed;fillColor=#ffe6cc;strokeColor=#d79b00;" vertex="1" parent="ez5KbiafPJX029IDMAS3-1">
          <mxGeometry x="622" y="317" width="139" height="139" as="geometry" />
        </mxCell>
        <mxCell id="ez5KbiafPJX029IDMAS3-26" value="&lt;b&gt;Host Storage&lt;/b&gt;" style="text;html=1;align=center;verticalAlign=middle;resizable=0;points=[];autosize=1;strokeColor=none;fillColor=none;" vertex="1" parent="ez5KbiafPJX029IDMAS3-1">
          <mxGeometry x="179" y="527" width="100" height="30" as="geometry" />
        </mxCell>
      </root>
    </mxGraphModel>
  </diagram>
</mxfile>
